<svg fill="#f9f9f9" width="64px" height="64px" viewBox="-19.82 0 110 110" xmlns="http://www.w3.org/2000/svg" stroke="#f9f9f9">

<g id="SVGRepo_bgCarrier" stroke-width="0"/>

<g id="SVGRepo_tracerCarrier" stroke-linecap="round" stroke-linejoin="round"/>

<g id="SVGRepo_iconCarrier"> <path id="_plant" data-name=" plant" d="M1204.354,1193.815c-2.266-.057-4.525-.369-6.789-.538a11.875,11.875,0,0,0-2.262-.006c-.709.086-1.458.765-2.1.048a5.405,5.405,0,0,1-1.091-1.924c-1.552-4.935-3.089-9.87-4.551-14.829-1.178-3.992-2.214-8.023-3.38-12.018-.528-1.813-1.309-3.559-1.8-5.383a1.974,1.974,0,0,0-2.053-1.725,4.26,4.26,0,0,1-4.277-4.007c-.484-3.492-1.42-6.924-1.21-10.5a11.948,11.948,0,0,1,.081-1.508,2.882,2.882,0,0,1,2.044-2.5,22.581,22.581,0,0,1,4.42-.928c1.775-.116,3.559-.105,5.342-.094.746,0,1.493.009,2.239,0a2.232,2.232,0,0,1,.754.029c4.06,1.452,7.97-.051,11.927-.589.625-.081,1.255-.151,1.878-.25,1.372-.222,1.74-.489,1.927-1.9a33.85,33.85,0,0,1,1.619-6.986.726.726,0,0,0-.855-.9,16.218,16.218,0,0,1-6-.017,5.71,5.71,0,0,1-1.481-.287c-3.862-1.915-7.65-3.919-9.942-7.853a8.465,8.465,0,0,1-1.318-5.027c.166-2.3.771-3.1,3.075-3.586a17.805,17.805,0,0,1,18.553,7.3,14.284,14.284,0,0,0,1.173,1.472.633.633,0,0,0,.617.021,4.8,4.8,0,0,0,.7-.876c1.857-2.551,3.7-5.108,5.572-7.646.559-.76.5-.943-.517-1.142a14.941,14.941,0,0,1-10.765-8.08c-1.827-3.9-3.409-7.915-3.056-12.354a23.229,23.229,0,0,1,.77-4.069,1.755,1.755,0,0,1,2.4-1.21,13.838,13.838,0,0,1,2.8,1.111,43.1,43.1,0,0,1,10.4,8.158,9.279,9.279,0,0,1,2.261,9.453,6.381,6.381,0,0,0-.5,3.287c1.106.153,1.865-.636,2.722-1.084a20.8,20.8,0,0,1,13.951-1.955,9.877,9.877,0,0,1,6.953,4.789c.931,1.573.765,2.422-.517,3.664-1.982,1.922-4.546,2.711-7.04,3.555a17.346,17.346,0,0,1-10.449-.039,11.3,11.3,0,0,1-4.827-2.89c-.528-.508-1.149-.381-1.539.317-.986,1.763-1.982,3.524-2.834,5.35-.332.71-1.348,1.48-.526,2.338.582.6,1.426-.072,2.151-.084a6.492,6.492,0,0,1,2.209.247,2.527,2.527,0,0,1,1.026,4.267,11.274,11.274,0,0,1-4.529,2.674c-1.084.334-2.181.634-3.288.883a2.5,2.5,0,0,0-2.1,1.926c-.389,1.587-.788,3.172-1.148,4.766a.944.944,0,0,0,.858,1.021c3.916-.113,7.829-.221,11.743-.365,1.89-.072,3.776-.232,5.665-.347,2.018-.122,4.041-.182,6.052-.375,3.189-.3,4.967,1.609,5.877,4.29a12.342,12.342,0,0,1,.551,5.244c-.182,1.754-.213,3.521-.373,5.281a13.5,13.5,0,0,1-.47,2.583c-.516,1.732-1.5,2.824-3.55,2.681-1.031-.07-1.381.427-1.417,1.336a12.225,12.225,0,0,0,0,1.519c.391,4.707-.458,9.309-1.164,13.924-.761,4.983-1.5,9.971-2.246,14.955.672,3.048-1.668,4.184-3.611,5.428a9.977,9.977,0,0,1-5.073,1.328c-2.138.089-4.273.332-6.411.5-.755.056-1.512.111-2.268.112-2.34.01-4.682.042-7.022.042C1207,1193.855,1205.679,1193.845,1204.354,1193.815Zm-1.734-8.454a1.921,1.921,0,0,1-.2.727c-.262.562-.2,1.017.478,1.066a19.59,19.59,0,0,0,3.4.071c3.888-.405,7.768-.874,11.645-1.37,2.375-.3,4.738-.706,7.109-1.047a1.392,1.392,0,0,0,1.261-1.193c.144-.611.416-1.2.522-1.818,1.035-6.092,2.153-12.176,3.019-18.3a50.543,50.543,0,0,0,.1-7.193.926.926,0,0,0-.972-.952c-.777.006-1.554,0-2.333,0a62.346,62.346,0,0,0-6.757.215c-2.524.268-5.036.369-7.56.392-1.9.02-3.794.006-5.691.006,0-.065-.007-.13-.012-.2-5.167.311-10.331.643-15.5.932-4.7.265-4.655-.246-2.639,4.257.535,1.2.682,2.716,2.074,3.425.959-.584,1.916-1.172,2.881-1.741a7.824,7.824,0,0,1,1.662-.9,11.337,11.337,0,0,1,2.58-.45,1.539,1.539,0,0,1,1.526.921,1.41,1.41,0,0,1-.658,1.6c-.646.392-1.366.668-1.986,1.092-1.455,1-2.912,2-4.279,3.111a1.56,1.56,0,0,0-.375,2.057c.325.631.591.848,1.067.595,1.222-.655,2.434-1.336,3.675-1.952a3.68,3.68,0,0,1,2.945-.256,1.885,1.885,0,0,1,.908,1.056,1.115,1.115,0,0,1-.365.99c-.733.476-1.564.793-2.328,1.225-1.315.739-2.631,1.479-3.9,2.295-.52.337-.459,1.5.022,2.077.44.523.9.2,1.339-.014,1.023-.5,2.023-1.041,3.064-1.5a3.891,3.891,0,0,1,2.957-.189,1.264,1.264,0,0,1,.652.83,1.2,1.2,0,0,1-.292,1,7.928,7.928,0,0,1-1.608.953c-1.357.669-2.75,1.273-4.085,1.985a.865.865,0,0,0-.373,1.275c.277.437.643.833,1.222.572.8-.36,1.552-.869,2.377-1.157a4.243,4.243,0,0,1,1.84-.162,1.18,1.18,0,0,1,.791.67,1.318,1.318,0,0,1-.088,1.053,3.62,3.62,0,0,1-1.066,1.039c-.737.484-1.544.862-2.286,1.345a3.336,3.336,0,0,0-.753.822.366.366,0,0,0,.043.353c.166.164.427.438.563.393,1.057-.342,2.076-.811,3.144-1.117a.8.8,0,0,1,.222-.031A1.1,1.1,0,0,1,1202.62,1185.361Zm-18.936-33.095a3,3,0,0,0-.948.251.61.61,0,0,0,.083.3.922.922,0,0,0,1.255.022,1.025,1.025,0,0,0,.169-.241c-.185-.119-.37-.336-.555-.336Zm7.353-6.032a1.228,1.228,0,0,1,.8.691,2.27,2.27,0,0,1,.071,1.474c-.641,1.457.257,2.319,1.075,3.242.263.3.787.247.887-.083.179-.6.329-1.2.474-1.8.216-.9.553-1.7,1.584-1.894.664-.122,1.149.568,1.357,1.9.02.122-.01.256.01.379.175,1.136.378,1.377,1.354,1.365,3.534-.053,7.052-.162,10.58-.563,4.763-.543,9.565-.726,14.351-1.068.129-.01.252-.02.378-.02a1.816,1.816,0,0,0,1.807-1.107,17.4,17.4,0,0,1,1.284-2.306,2.78,2.78,0,0,1,1.161-.914,1.245,1.245,0,0,1,1.039.17,1.157,1.157,0,0,1,.446.946c-.261.827-.7,1.592-1.013,2.41-.048.128.252.56.375.552,1.75-.1,3.5-.232,5.244-.43a1.165,1.165,0,0,0,.84-.645c.555-2.194,1.243-4.381.935-6.7a1.193,1.193,0,0,0-1.276-1.07c-.252,0-.5.037-.756.047-7.319.293-14.638.574-21.955.885-1.132.046-2.262.2-3.386.339-2.625.338-5.241.807-7.877,1.016-2.767.215-5.554.193-8.333.271,0-.027,0-.053,0-.077-1.137,0-2.276-.027-3.413,0-1.893.053-3.791.057-5.674.238-1.453.134-1.915.739-1.975,2.273a15.977,15.977,0,0,0,.21,2.213c.95-.176.513-1.169.975-1.652.423-.445.767-.966,1.165-1.436a.4.4,0,0,1,.358-.075.39.39,0,0,1,.208.281c.069,1.117.114,2.234.185,3.352.006.105.13.225.23.289.041.025.212-.061.248-.133.287-.557.531-1.137.834-1.682s.665-1.205,1.371-1.062c.208.044.325.885.355,1.363.044.751-.049,1.508-.012,2.259a.68.68,0,0,0,.476.462.732.732,0,0,0,.612-.306c.493-1.006.89-2.06,1.421-3.049a1.089,1.089,0,0,1,.833-.353A.7.7,0,0,1,1191.037,1146.235Zm9.544-27.968a2.511,2.511,0,0,0,.629,2.375c.079.079.263.193.309.158a1.5,1.5,0,0,0,.42-.429c.057-.089.022-.239.048-.673a12.079,12.079,0,0,0-.358-1.439.808.808,0,0,0-.6-.354h-.015A.6.6,0,0,0,1200.58,1118.266Zm-3.123-1c-.177.7-.788,1.339-.366,2.13a1.287,1.287,0,0,0,.507.506c.076.039.392-.17.422-.3a5.926,5.926,0,0,0,.071-1.012,9.543,9.543,0,0,0-.018-1.234c-.018-.131-.229-.247-.378-.337h0A.509.509,0,0,0,1197.457,1117.27Zm-2.82-.981.241.029-.1-.271Zm39.692-8.315a4.808,4.808,0,0,0-.494.965,4.722,4.722,0,0,0,.383,1.06.666.666,0,0,0,.631.194,1.51,1.51,0,0,0,.109-2.272.419.419,0,0,0-.25-.061A.558.558,0,0,0,1234.329,1107.974Zm-3.994.925a.886.886,0,0,0,.542,1.154.572.572,0,0,0,.485-.27,2.518,2.518,0,0,0-.043-1.043c-.038-.14-.341-.209-.545-.319C1230.625,1108.574,1230.389,1108.713,1230.335,1108.9Zm-3.715.378c.125.135.24.364.378.375.182.018.378-.134.568-.212-.115-.138-.227-.386-.346-.389h-.023A1.689,1.689,0,0,0,1226.62,1109.277Zm11.176-.486a3.666,3.666,0,0,0,.209.587c.125-.12.249-.241.374-.36-.114-.151-.231-.3-.347-.444C1237.949,1108.647,1237.786,1108.737,1237.8,1108.791Zm-17.145-2.189c.09-.2.181-.4.272-.595C1220.527,1106.04,1220.208,1106.115,1220.651,1106.6Zm-4.866-6.47c-.035.278.211.595.325.892a7.219,7.219,0,0,0,.63-.407c1.4-1.09,1.6-1.715.823-3.141a6.663,6.663,0,0,0-1.13-1.263C1216.208,1097.52,1215.963,1098.82,1215.785,1100.132Zm-3.538-6.163a1.26,1.26,0,0,1,.494.926c.036.867-.068,1.738-.068,2.607a6.156,6.156,0,0,0,.186,1.087,9.392,9.392,0,0,0,.573-1.1c.531-1.44,1.639-1.624,2.927-1.443a1.348,1.348,0,0,0-.084-.626,21.067,21.067,0,0,0-6.386-5.344.48.48,0,0,0-.259,0,3.556,3.556,0,0,1,.3,2.407,11.263,11.263,0,0,0-.251,2.926c-.007.112.093.229.144.342.1-.057.221-.091.281-.172.293-.4.55-.822.857-1.208a1.2,1.2,0,0,1,.891-.515A.815.815,0,0,1,1212.247,1093.969Zm-4.7-4.7c.192.273.344.726.583.78a4.907,4.907,0,0,0,1.394-.041c-.02-.718-.608-.976-1.151-1.164a.18.18,0,0,0-.058-.009C1208.109,1088.839,1207.8,1089.134,1207.548,1089.273Zm10.343,84.353a.93.93,0,0,1,.005-.717,7.465,7.465,0,0,1,3.784-3.9c.251-.113.69.089.984.247.108.057.147.461.062.631a12.89,12.89,0,0,1-3.407,4.338c-.157.131-.465.076-.824.125A3.706,3.706,0,0,1,1217.891,1173.625Zm-2.592-2.842a1.784,1.784,0,0,1-.282-2.049,14.027,14.027,0,0,1,4.242-4.71,1.822,1.822,0,0,1,1.04-.317c.286.026.544.354.828.557-.1.451-.068.9-.271,1.158-1.375,1.782-2.777,3.549-4.224,5.273a.945.945,0,0,1-.716.346A.882.882,0,0,1,1215.3,1170.783Z" transform="translate(-1174.818 -1083.856)"/> </g>

</svg>